<svg width="24" height="24" viewBox="0 0 24 24" fill="none" xmlns="http://www.w3.org/2000/svg">
<path d="M14.9992 20.999V12.999C14.9992 12.7337 14.8939 12.4794 14.7063 12.2919C14.5188 12.1043 14.2645 11.999 13.9992 11.999H9.99924C9.73402 11.999 9.47967 12.1043 9.29213 12.2919C9.10459 12.4794 8.99924 12.7337 8.99924 12.999V20.999" stroke="#A3212D" stroke-width="1.99983" stroke-linecap="round" stroke-linejoin="round"/>
<path d="M2.99976 9.99916C2.99969 9.70826 3.06308 9.42084 3.18553 9.15695C3.30797 8.89307 3.48651 8.65907 3.7087 8.47129L10.7081 2.47281C11.0691 2.16774 11.5264 2.00037 11.999 2.00037C12.4716 2.00037 12.9289 2.16774 13.2899 2.47281L20.2893 8.47129C20.5115 8.65907 20.69 8.89307 20.8124 9.15695C20.9349 9.42084 20.9983 9.70826 20.9982 9.99916V18.9984C20.9982 19.5288 20.7875 20.0374 20.4125 20.4125C20.0374 20.7875 19.5288 20.9982 18.9984 20.9982H4.99959C4.4692 20.9982 3.96053 20.7875 3.58549 20.4125C3.21045 20.0374 2.99976 19.5288 2.99976 18.9984V9.99916Z" stroke="#A3212D" stroke-width="1.99983" stroke-linecap="round" stroke-linejoin="round"/>
</svg>