<svg width="24" height="24" viewBox="0 0 24 24" fill="none" xmlns="http://www.w3.org/2000/svg">
<path d="M5.99948 1.99982L2.99974 5.99948V19.9983C2.99974 20.5287 3.21044 21.0373 3.58548 21.4124C3.96052 21.7874 4.46918 21.9981 4.99957 21.9981H18.9984C19.5288 21.9981 20.0374 21.7874 20.4125 21.4124C20.7875 21.0373 20.9982 20.5287 20.9982 19.9983V5.99948L17.9985 1.99982H5.99948Z" stroke="#5B3A29" stroke-width="1.99983" stroke-linecap="round" stroke-linejoin="round"/>
<path d="M2.99974 5.99951H20.9982" stroke="#5B3A29" stroke-width="1.99983" stroke-linecap="round" stroke-linejoin="round"/>
<path d="M15.9993 9.99915C15.9993 11.06 15.5779 12.0774 14.8277 12.8276C14.0776 13.5777 13.0602 13.9991 11.9993 13.9991C10.9384 13.9991 9.92103 13.5777 9.17089 12.8276C8.42074 12.0774 7.99931 11.06 7.99931 9.99915" stroke="#5B3A29" stroke-width="1.99983" stroke-linecap="round" stroke-linejoin="round"/>
</svg>