<svg width="24" height="24" viewBox="0 0 24 24" fill="none" xmlns="http://www.w3.org/2000/svg">
<path d="M14.9993 1.99982H8.99932C8.44703 1.99982 7.99932 2.44753 7.99932 2.99982V4.99982C7.99932 5.5521 8.44703 5.99982 8.99932 5.99982H14.9993C15.5516 5.99982 15.9993 5.5521 15.9993 4.99982V2.99982C15.9993 2.44753 15.5516 1.99982 14.9993 1.99982Z" stroke="#5B3A29" stroke-width="1.99983" stroke-linecap="round" stroke-linejoin="round"/>
<path d="M15.9986 3.99963H17.9985C18.5288 3.99963 19.0375 4.21033 19.4126 4.58537C19.7876 4.96041 19.9983 5.46908 19.9983 5.99946V19.9983C19.9983 20.5287 19.7876 21.0373 19.4126 21.4124C19.0375 21.7874 18.5288 21.9981 17.9985 21.9981H5.99949C5.4691 21.9981 4.96043 21.7874 4.58539 21.4124C4.21035 21.0373 3.99966 20.5287 3.99966 19.9983V5.99946C3.99966 5.46908 4.21035 4.96041 4.58539 4.58537C4.96043 4.21033 5.4691 3.99963 5.99949 3.99963H7.99932" stroke="#5B3A29" stroke-width="1.99983" stroke-linecap="round" stroke-linejoin="round"/>
<path d="M11.999 10.9991H15.999" stroke="#5B3A29" stroke-width="1.99983" stroke-linecap="round" stroke-linejoin="round"/>
<path d="M11.999 15.9987H15.999" stroke="#5B3A29" stroke-width="1.99983" stroke-linecap="round" stroke-linejoin="round"/>
<path d="M7.99932 10.9991H8.00932" stroke="#5B3A29" stroke-width="1.99983" stroke-linecap="round" stroke-linejoin="round"/>
<path d="M7.99932 15.9987H8.00932" stroke="#5B3A29" stroke-width="1.99983" stroke-linecap="round" stroke-linejoin="round"/>
</svg>