<svg width="32" height="32" viewBox="0 0 32 32" fill="none" xmlns="http://www.w3.org/2000/svg">
<path d="M14.6654 28.9708C15.0708 29.2049 15.5306 29.3281 15.9986 29.3281C16.4667 29.3281 16.9265 29.2049 17.3319 28.9708L26.6644 23.638C27.0693 23.4042 27.4057 23.068 27.6397 22.6632C27.8737 22.2583 27.9971 21.7991 27.9976 21.3315V10.6657C27.9971 10.1981 27.8737 9.7389 27.6397 9.33407C27.4057 8.92924 27.0693 8.59307 26.6644 8.35927L17.3319 3.02639C16.9265 2.79237 16.4667 2.66916 15.9986 2.66916C15.5306 2.66916 15.0708 2.79237 14.6654 3.02639L5.33288 8.35927C4.92793 8.59307 4.59158 8.92924 4.35758 9.33407C4.12357 9.7389 4.00014 10.1981 3.99966 10.6657V21.3315C4.00014 21.7991 4.12357 22.2583 4.35758 22.6632C4.59158 23.068 4.92793 23.4042 5.33288 23.638L14.6654 28.9708Z" stroke="white" stroke-width="2.66644" stroke-linecap="round" stroke-linejoin="round"/>
<path d="M15.9986 29.3308V15.9986" stroke="white" stroke-width="2.66644" stroke-linecap="round" stroke-linejoin="round"/>
<path d="M4.38629 9.33255L15.9986 15.9986L27.611 9.33255" stroke="white" stroke-width="2.66644" stroke-linecap="round" stroke-linejoin="round"/>
<path d="M9.99915 5.69284L21.9981 12.5589" stroke="white" stroke-width="2.66644" stroke-linecap="round" stroke-linejoin="round"/>
</svg>
