<svg width="24" height="24" viewBox="0 0 24 24" fill="none" xmlns="http://www.w3.org/2000/svg">
<path d="M7.99939 21.9983C8.55167 21.9983 8.99939 21.5506 8.99939 20.9983C8.99939 20.446 8.55167 19.9983 7.99939 19.9983C7.4471 19.9983 6.99939 20.446 6.99939 20.9983C6.99939 21.5506 7.4471 21.9983 7.99939 21.9983Z" stroke="white" stroke-width="1.99983" stroke-linecap="round" stroke-linejoin="round"/>
<path d="M18.9985 21.9983C19.5508 21.9983 19.9985 21.5506 19.9985 20.9983C19.9985 20.446 19.5508 19.9983 18.9985 19.9983C18.4462 19.9983 17.9985 20.446 17.9985 20.9983C17.9985 21.5506 18.4462 21.9983 18.9985 21.9983Z" stroke="white" stroke-width="1.99983" stroke-linecap="round" stroke-linejoin="round"/>
<path d="M2.04999 2.05005H4.04982L6.70959 14.469C6.80716 14.9238 7.06023 15.3304 7.42524 15.6187C7.79025 15.9071 8.24437 16.0592 8.70942 16.0489H18.4886C18.9437 16.0481 19.385 15.8922 19.7395 15.6067C20.094 15.3213 20.3406 14.9235 20.4384 14.479L22.0883 7.04962H5.11973" stroke="white" stroke-width="1.99983" stroke-linecap="round" stroke-linejoin="round"/>
</svg>
