<svg width="20" height="20" viewBox="0 0 20 20" fill="none" xmlns="http://www.w3.org/2000/svg">
<g clip-path="url(#clip0_4_588)">
<path d="M10.1825 1.66653H9.81586C9.37387 1.66653 8.94998 1.84211 8.63745 2.15465C8.32491 2.46718 8.14933 2.89107 8.14933 3.33306V3.48305C8.14904 3.77529 8.07189 4.06232 7.92564 4.31534C7.77938 4.56836 7.56917 4.77847 7.31607 4.92459L6.95777 5.13291C6.70443 5.27917 6.41704 5.35618 6.12451 5.35618C5.83197 5.35618 5.54459 5.27917 5.29125 5.13291L5.16626 5.06624C4.78384 4.84565 4.32953 4.7858 3.90303 4.89985C3.47654 5.01389 3.11272 5.2925 2.89145 5.67453L2.70813 5.99117C2.48754 6.37358 2.42769 6.8279 2.54174 7.25439C2.65578 7.68088 2.93439 8.0447 3.31641 8.26597L3.4414 8.3493C3.69328 8.49471 3.90271 8.70351 4.04889 8.95494C4.19507 9.20637 4.27291 9.49168 4.27467 9.78251V10.2075C4.27583 10.5011 4.19938 10.7899 4.05305 11.0445C3.90673 11.2991 3.69572 11.5105 3.4414 11.6573L3.31641 11.7323C2.93439 11.9536 2.65578 12.3174 2.54174 12.7439C2.42769 13.1704 2.48754 13.6247 2.70813 14.0071L2.89145 14.3238C3.11272 14.7058 3.47654 14.9844 3.90303 15.0985C4.32953 15.2125 4.78384 15.1527 5.16626 14.9321L5.29125 14.8654C5.54459 14.7191 5.83197 14.6421 6.12451 14.6421C6.41704 14.6421 6.70443 14.7191 6.95777 14.8654L7.31607 15.0737C7.56917 15.2198 7.77938 15.43 7.92564 15.683C8.07189 15.936 8.14904 16.223 8.14933 16.5153V16.6653C8.14933 17.1072 8.32491 17.5311 8.63745 17.8437C8.94998 18.1562 9.37387 18.3318 9.81586 18.3318H10.1825C10.6245 18.3318 11.0484 18.1562 11.3609 17.8437C11.6734 17.5311 11.849 17.1072 11.849 16.6653V16.5153C11.8493 16.223 11.9265 15.936 12.0727 15.683C12.219 15.43 12.4292 15.2198 12.6823 15.0737L13.0406 14.8654C13.2939 14.7191 13.5813 14.6421 13.8738 14.6421C14.1664 14.6421 14.4538 14.7191 14.7071 14.8654L14.8321 14.9321C15.2145 15.1527 15.6688 15.2125 16.0953 15.0985C16.5218 14.9844 16.8856 14.7058 17.1069 14.3238L17.2902 13.9988C17.5108 13.6164 17.5707 13.1621 17.4566 12.7356C17.3426 12.3091 17.064 11.9453 16.6819 11.724L16.557 11.6573C16.3026 11.5105 16.0916 11.2991 15.9453 11.0445C15.799 10.7899 15.7225 10.5011 15.7237 10.2075V9.79084C15.7225 9.49718 15.799 9.20843 15.9453 8.95382C16.0916 8.69922 16.3026 8.48779 16.557 8.34097L16.6819 8.26597C17.064 8.0447 17.3426 7.68088 17.4566 7.25439C17.5707 6.8279 17.5108 6.37358 17.2902 5.99117L17.1069 5.67453C16.8856 5.2925 16.5218 5.01389 16.0953 4.89985C15.6688 4.7858 15.2145 4.84565 14.8321 5.06624L14.7071 5.13291C14.4538 5.27917 14.1664 5.35618 13.8738 5.35618C13.5813 5.35618 13.2939 5.27917 13.0406 5.13291L12.6823 4.92459C12.4292 4.77847 12.219 4.56836 12.0727 4.31534C11.9265 4.06232 11.8493 3.77529 11.849 3.48305V3.33306C11.849 2.89107 11.6734 2.46718 11.3609 2.15465C11.0484 1.84211 10.6245 1.66653 10.1825 1.66653Z" stroke="#5B3A29" stroke-width="1.66652" stroke-linecap="round" stroke-linejoin="round"/>
<path d="M9.99918 12.4989C11.3798 12.4989 12.499 11.3797 12.499 9.99915C12.499 8.61855 11.3798 7.49936 9.99918 7.49936C8.61858 7.49936 7.49939 8.61855 7.49939 9.99915C7.49939 11.3797 8.61858 12.4989 9.99918 12.4989Z" stroke="#5B3A29" stroke-width="1.66652" stroke-linecap="round" stroke-linejoin="round"/>
</g>
<defs>
<clipPath id="clip0_4_588">
<rect width="19.9983" height="19.9983" fill="white"/>
</clipPath>
</defs>
</svg>
