<svg width="16" height="16" viewBox="0 0 16 16" fill="none" xmlns="http://www.w3.org/2000/svg">
<path d="M7.33276 14.4854C7.53543 14.6025 7.76534 14.6641 7.99937 14.6641C8.23339 14.6641 8.4633 14.6025 8.66598 14.4854L13.3322 11.819C13.5347 11.7021 13.7029 11.534 13.8199 11.3316C13.9369 11.1292 13.9986 10.8996 13.9989 10.6658V5.33289C13.9986 5.09909 13.9369 4.86947 13.8199 4.66705C13.7029 4.46464 13.5347 4.29655 13.3322 4.17965L8.66598 1.51321C8.4633 1.3962 8.23339 1.33459 7.99937 1.33459C7.76534 1.33459 7.53543 1.3962 7.33276 1.51321L2.66649 4.17965C2.46401 4.29655 2.29584 4.46464 2.17884 4.66705C2.06183 4.86947 2.00012 5.09909 1.99988 5.33289V10.6658C2.00012 10.8996 2.06183 11.1292 2.17884 11.3316C2.29584 11.534 2.46401 11.7021 2.66649 11.819L7.33276 14.4854Z" stroke="white" stroke-width="1.33322" stroke-linecap="round" stroke-linejoin="round"/>
<path d="M7.99927 14.6654V7.99933" stroke="white" stroke-width="1.33322" stroke-linecap="round" stroke-linejoin="round"/>
<path d="M2.19312 4.66626L7.99929 7.99931L13.8055 4.66626" stroke="white" stroke-width="1.33322" stroke-linecap="round" stroke-linejoin="round"/>
<path d="M4.99963 2.84644L10.9991 6.27948" stroke="white" stroke-width="1.33322" stroke-linecap="round" stroke-linejoin="round"/>
</svg>
