<svg width="20" height="20" viewBox="0 0 20 20" fill="none" xmlns="http://www.w3.org/2000/svg">
<path d="M9.16588 18.1068C9.41923 18.2531 9.70661 18.3301 9.99915 18.3301C10.2917 18.3301 10.5791 18.2531 10.8324 18.1068L16.6652 14.7737C16.9183 14.6276 17.1286 14.4175 17.2748 14.1645C17.4211 13.9115 17.4982 13.6245 17.4985 13.3322V6.66611C17.4982 6.37386 17.4211 6.08683 17.2748 5.83381C17.1286 5.5808 16.9183 5.37069 16.6652 5.22456L10.8324 1.89152C10.5791 1.74525 10.2917 1.66824 9.99915 1.66824C9.70661 1.66824 9.41923 1.74525 9.16588 1.89152L3.33305 5.22456C3.07996 5.37069 2.86974 5.5808 2.72349 5.83381C2.57723 6.08683 2.50009 6.37386 2.49979 6.66611V13.3322C2.50009 13.6245 2.57723 13.9115 2.72349 14.1645C2.86974 14.4175 3.07996 14.6276 3.33305 14.7737L9.16588 18.1068Z" stroke="#C08A4D" stroke-width="1.66652" stroke-linecap="round" stroke-linejoin="round"/>
<path d="M9.99915 18.3318V9.99915" stroke="#C08A4D" stroke-width="1.66652" stroke-linecap="round" stroke-linejoin="round"/>
<path d="M2.74143 5.83282L9.99915 9.99914L17.2569 5.83282" stroke="#C08A4D" stroke-width="1.66652" stroke-linecap="round" stroke-linejoin="round"/>
<path d="M6.24947 3.55804L13.7488 7.84934" stroke="#C08A4D" stroke-width="1.66652" stroke-linecap="round" stroke-linejoin="round"/>
</svg>
