<svg width="20" height="20" viewBox="0 0 20 20" fill="none" xmlns="http://www.w3.org/2000/svg">
<g clip-path="url(#clip0_4_676)">
<path d="M13.3322 17.4985V15.832C13.3322 14.948 12.981 14.1002 12.356 13.4752C11.7309 12.8501 10.8831 12.4989 9.99914 12.4989H4.99957C4.11559 12.4989 3.26782 12.8501 2.64275 13.4752C2.01768 14.1002 1.66652 14.948 1.66652 15.832V17.4985" stroke="#5B3A29" stroke-width="1.66652" stroke-linecap="round" stroke-linejoin="round"/>
<path d="M7.49936 9.16588C9.34015 9.16588 10.8324 7.67363 10.8324 5.83284C10.8324 3.99204 9.34015 2.49979 7.49936 2.49979C5.65857 2.49979 4.16631 3.99204 4.16631 5.83284C4.16631 7.67363 5.65857 9.16588 7.49936 9.16588Z" stroke="#5B3A29" stroke-width="1.66652" stroke-linecap="round" stroke-linejoin="round"/>
<path d="M18.3318 17.4985V15.832C18.3312 15.0935 18.0854 14.3761 17.633 13.7924C17.1805 13.2088 16.547 12.7919 15.832 12.6073" stroke="#5B3A29" stroke-width="1.66652" stroke-linecap="round" stroke-linejoin="round"/>
<path d="M13.3322 2.60812C14.0491 2.79169 14.6846 3.20866 15.1384 3.79328C15.5922 4.37791 15.8385 5.09694 15.8385 5.83701C15.8385 6.57709 15.5922 7.29612 15.1384 7.88075C14.6846 8.46537 14.0491 8.88234 13.3322 9.06591" stroke="#5B3A29" stroke-width="1.66652" stroke-linecap="round" stroke-linejoin="round"/>
</g>
<defs>
<clipPath id="clip0_4_676">
<rect width="19.9983" height="19.9983" fill="white"/>
</clipPath>
</defs>
</svg>
