<svg width="20" height="20" viewBox="0 0 20 20" fill="none" xmlns="http://www.w3.org/2000/svg">
<path d="M9.99918 2.49982H4.16634C3.72435 2.49982 3.30046 2.6754 2.98793 2.98793C2.6754 3.30046 2.49982 3.72435 2.49982 4.16634V15.832C2.49982 16.274 2.6754 16.6979 2.98793 17.0104C3.30046 17.323 3.72435 17.4985 4.16634 17.4985H15.832C16.274 17.4985 16.6979 17.323 17.0104 17.0104C17.323 16.6979 17.4985 16.274 17.4985 15.832V9.99918" stroke="#5B3A29" stroke-width="1.66652" stroke-linecap="round" stroke-linejoin="round"/>
<path d="M15.3112 2.18734C15.6427 1.85585 16.0923 1.66962 16.5611 1.66962C17.0299 1.66962 17.4795 1.85585 17.811 2.18734C18.1425 2.51883 18.3287 2.96843 18.3287 3.43723C18.3287 3.90603 18.1425 4.35563 17.811 4.68713L10.3008 12.1982C10.1029 12.3958 9.85851 12.5405 9.59003 12.6189L7.19607 13.3189C7.12437 13.3398 7.04836 13.3411 6.97601 13.3225C6.90366 13.304 6.83762 13.2663 6.78481 13.2135C6.732 13.1607 6.69435 13.0947 6.67582 13.0223C6.65728 12.95 6.65853 12.874 6.67945 12.8023L7.37939 10.4083C7.45815 10.14 7.60315 9.8959 7.80102 9.69836L15.3112 2.18734Z" stroke="#5B3A29" stroke-width="1.66652" stroke-linecap="round" stroke-linejoin="round"/>
</svg>
